<svg width="11" height="21" viewBox="0 0 11 21" fill="none" xmlns="http://www.w3.org/2000/svg">
<g clip-path="url(#clip0)">
<path d="M11 9.47659V19.7245C11.0029 19.8275 10.9851 19.9301 10.9478 20.0262C10.9104 20.1223 10.8541 20.2099 10.7824 20.2838C10.7106 20.3577 10.6248 20.4165 10.53 20.4566C10.4352 20.4968 10.3333 20.5174 10.2303 20.5174C10.1274 20.5174 10.0255 20.4968 9.93067 20.4566C9.83585 20.4165 9.75002 20.3577 9.67826 20.2838C9.60651 20.2099 9.55028 20.1223 9.5129 20.0262C9.47553 19.9301 9.45776 19.8275 9.46066 19.7245V13.2956C10.4488 12.2708 11.0008 10.9014 11 9.47659Z" fill="#333367"/>
<path d="M10.2306 8.70532C10.4347 8.70548 10.6304 8.78681 10.7747 8.93144C10.919 9.07606 11 9.27214 11 9.47659C11.0008 10.9014 10.4488 12.2708 9.46066 13.2956V9.47659C9.46066 9.27204 9.54178 9.07586 9.68618 8.93122C9.83058 8.78658 10.0264 8.70532 10.2306 8.70532Z" fill="#333367"/>
<path d="M9.46067 9.47659V13.2956C8.701 14.0887 7.72173 14.6358 6.64895 14.8665C5.57617 15.0972 4.45901 15.0009 3.44132 14.5901C2.42362 14.1793 1.552 13.4727 0.938683 12.5614C0.325366 11.65 -0.00156043 10.5757 1.44792e-07 9.47659C-0.00289839 9.57966 0.0148654 9.68227 0.052241 9.77835C0.0896166 9.87442 0.145845 9.96201 0.217602 10.0359C0.289358 10.1099 0.375186 10.1686 0.470009 10.2088C0.564832 10.2489 0.666726 10.2696 0.769664 10.2696C0.872603 10.2696 0.974497 10.2489 1.06932 10.2088C1.16414 10.1686 1.24997 10.1099 1.32173 10.0359C1.39348 9.96201 1.44971 9.87442 1.48709 9.77835C1.52446 9.68227 1.54223 9.57966 1.53933 9.47659C1.55227 10.5203 1.97524 11.5168 2.71661 12.2502C3.45797 12.9837 4.458 13.395 5.5 13.395C6.542 13.395 7.54203 12.9837 8.28339 12.2502C9.02476 11.5168 9.44774 10.5203 9.46067 9.47659Z" fill="#333367"/>
<path d="M7.15077 8.70531C7.57601 8.70531 7.92074 8.36 7.92074 7.93405C7.92074 7.50809 7.57601 7.16278 7.15077 7.16278C6.72553 7.16278 6.3808 7.50809 6.3808 7.93405C6.3808 8.36 6.72553 8.70531 7.15077 8.70531Z" fill="#333367"/>
<path d="M3.84924 8.70531C4.27448 8.70531 4.61921 8.36 4.61921 7.93405C4.61921 7.50809 4.27448 7.16278 3.84924 7.16278C3.424 7.16278 3.07927 7.50809 3.07927 7.93405C3.07927 8.36 3.424 8.70531 3.84924 8.70531Z" fill="#333367"/>
<path d="M1.53933 0.959288V9.66462C1.54223 9.56155 1.52446 9.45894 1.48709 9.36287C1.44971 9.26679 1.39348 9.1792 1.32173 9.10527C1.24997 9.03134 1.16414 8.97257 1.06932 8.93244C0.974497 8.89231 0.872603 8.87164 0.769664 8.87164C0.666726 8.87164 0.564832 8.89231 0.470009 8.93244C0.375186 8.97257 0.289358 9.03134 0.217602 9.10527C0.145845 9.1792 0.0896165 9.26679 0.052241 9.36287C0.0148654 9.45894 -0.00289839 9.56155 1.44762e-07 9.66462V0.959288C-0.00289839 0.856217 0.0148654 0.75361 0.052241 0.657535C0.0896165 0.56146 0.145845 0.473868 0.217602 0.399937C0.289358 0.326006 0.375186 0.267239 0.470009 0.22711C0.564832 0.186981 0.666726 0.166306 0.769664 0.166306C0.872603 0.166306 0.974497 0.186981 1.06932 0.22711C1.16414 0.267239 1.24997 0.326006 1.32173 0.399937C1.39348 0.473868 1.44971 0.56146 1.48709 0.657535C1.52446 0.75361 1.54223 0.856217 1.53933 0.959288Z" fill="#333367"/>
<path d="M0.769969 8.79933C0.922255 8.79933 1.07112 8.84457 1.19774 8.92931C1.32436 9.01406 1.42305 9.13452 1.48133 9.27545C1.53961 9.41638 1.55485 9.57145 1.52514 9.72106C1.49543 9.87068 1.4221 10.0081 1.31442 10.116C1.20674 10.2238 1.06954 10.2973 0.920183 10.327C0.770824 10.3568 0.616008 10.3415 0.475315 10.2832C0.334621 10.2248 0.214369 10.1259 0.129763 9.99909C0.0451579 9.87226 0 9.72314 0 9.5706C0 9.36605 0.0811215 9.16987 0.225519 9.02523C0.369916 8.88059 0.565761 8.79933 0.769969 8.79933Z" fill="#333367"/>
</g>
<defs>
<clipPath id="clip0">
<rect width="11" height="20.4957" fill="white"/>
</clipPath>
</defs>
</svg>
